HIERARCHY
ROOT ui
{
	 OFFSET 0 0 0
	 CHANNELS 3 XPosition YPosition Z Position
	 EndSite
	 {
	 OFFSET 0 -1 0
	 }
}
ROOT li
{
	 OFFSET 0 0 0
	 CHANNELS 3 XPosition YPosition Z Position
	 EndSite
	 {
	 OFFSET 0 -1 0
	 }
}
ROOT ul
{
	 OFFSET 0 0 0
	 CHANNELS 3 XPosition YPosition Z Position
	 EndSite
	 {
	 OFFSET 0 -1 0
	 }
}
ROOT ll
{
	 OFFSET 0 0 0
	 CHANNELS 3 XPosition YPosition Z Position
	 EndSite
	 {
	 OFFSET 0 -1 0
	 }
}
ROOT tt
{
	 OFFSET 0 0 0
	 CHANNELS 3 XPosition YPosition Z Position
	 EndSite
	 {
	 OFFSET 0 -1 0
	 }
}
ROOT tb
{
	 OFFSET 0 0 0
	 CHANNELS 3 XPosition YPosition Z Position
	 EndSite
	 {
	 OFFSET 0 -1 0
	 }
}
ROOT td
{
	 OFFSET 0 0 0
	 CHANNELS 3 XPosition YPosition Z Position
	 EndSite
	 {
	 OFFSET 0 -1 0
	 }
}
ROOT v
{
	 OFFSET 0 0 0
	 CHANNELS 3 XPosition YPosition Z Position
	 EndSite
	 {
	 OFFSET 0 -1 0
	 }
}
ROOT bn
{
	 OFFSET 0 0 0
	 CHANNELS 3 XPosition YPosition Z Position
	 EndSite
	 {
	 OFFSET 0 -1 0
	 }
}
MOTION
Frames: 18
Frame Time: 0.002
-0.0029387528896331785	5.05719006061554E-4	0		0.459915283203125	-2.368112548828125	0		-0.9060228271484375	0.12343304443359375	0		-0.6942008666992188	-2.509268310546875	0		1.616822021484375	-0.9499404907226563	0		3.498800537109375	-0.177346435546875	0		4.60103564453125	-0.03925517272949219	0		5.610716796875	0.0644691619873047	0		-0.03248044586181641	5.92990625	0		
0.07306885528564454	-0.003625415086746216	0		0.4811349182128906	-2.37478173828125	0		-0.9199945068359375	0.12389403533935547	0		-0.7779037475585937	-2.507256591796875	0		1.6059710693359375	-0.94725390625	0		3.469654541015625	-0.20333750915527343	0		4.607080078125	-0.03642315673828125	0		5.61775	0.06541275024414063	0		-0.05309164047241211	5.9214990234375	0		
0.011118890762329102	-0.005715822219848633	0		0.4764160461425781	-2.3772578125	0		-0.8509680786132813	0.11972761535644531	0		-0.7145741577148438	-2.505364501953125	0		1.603134521484375	-0.9466347045898438	0		3.465849609375	-0.1885283660888672	0		4.5881396484375	-0.0354095687866211	0		5.60582177734375	0.06749282073974609	0		-0.05560976409912109	5.9209482421875	0		
0.0632583236694336	-0.00667103910446167	0		0.4478302917480469	-2.371571044921875	0		-0.919830078125	0.12058159637451171	0		-0.7831981201171875	-2.506497314453125	0		1.6003734130859375	-0.9460310668945312	0		3.486955810546875	-0.19592210388183592	0		4.5912099609375	-0.04358174896240234	0		5.59296337890625	0.06855564117431641	0		-0.09506808471679687	5.91665771484375	0		
0.0015012199878692628	-0.008804290771484376	0		0.48425442504882815	-2.3793818359375	0		-0.9225787353515625	0.1209271469116211	0		-0.7727461547851563	-2.512233642578125	0		1.5647176513671874	-0.9462105102539062	0		3.472353515625	-0.1790792236328125	0		4.57852099609375	-0.03466900634765625	0		5.5992119140625	0.06844219970703125	0		-0.09736382293701172	5.91607275390625	0		
0.06497815704345702	0.0011300020217895508	0		0.44696624755859377	-2.365678466796875	0		-0.9201549072265625	0.1252181625366211	0		-0.7830447998046876	-2.5018359375	0		1.59824267578125	-0.94092138671875	0		3.469602783203125	-0.2023608856201172	0		4.58598095703125	-0.024942901611328124	0		5.59661181640625	0.06934895324707031	0		-0.06544147491455078	5.92222119140625	0		
0.004527713775634766	-0.0010680700540542602	0		0.47069784545898435	-2.37044140625	0		-0.9276242065429687	0.12156081390380859	0		-0.749302001953125	-2.506773193359375	0		1.5538992919921875	-0.9391047973632812	0		3.47734521484375	-0.17975755310058594	0		4.58947607421875	-0.03323353576660156	0		5.599232421875	0.0781664810180664	0		-0.06936125183105468	5.92360693359375	0		
0.057271305084228515	-0.001097344994544983	0		0.43862850952148436	-2.3698369140625	0		-0.9358605346679687	0.12588750457763673	0		-0.7163904418945313	-2.510720458984375	0		1.5787659912109375	-0.9318164672851562	0		3.4810478515625	-0.18717108154296874	0		4.581275390625	-0.023491920471191405	0		5.60191455078125	0.0709256134033203	0		-0.07207877349853516	5.92395849609375	0		
-0.007851761817932129	-0.007326612949371338	0		0.4626868591308594	-2.374658203125	0		-0.9319735107421875	0.12210689544677734	0		-0.80621484375	-2.49983154296875	0		1.5466878662109376	-0.941166259765625	0		3.450999755859375	-0.1843988494873047	0		4.57918994140625	-0.022849998474121093	0		5.589833984375	0.07172456359863282	0		-0.144660888671875	5.9127685546875	0		
-0.0017023760080337525	-8.450599759817123E-5	0		0.4189700012207031	-2.370040771484375	0		-0.9289151611328125	0.11731015014648437	0		-0.7830286254882812	-2.510758056640625	0		1.5898623046875	-0.9390784912109374	0		3.470988037109375	-0.2020287628173828	0		4.57315869140625	-0.040240585327148436	0		5.58793017578125	0.07238433837890625	0		-0.12988116455078125	5.92193994140625	0		
0.009535478591918946	-0.004905934810638428	0		0.4763641357421875	-2.37215234375	0		-0.9305880737304687	0.12652371978759766	0		-0.7925427856445313	-2.500481201171875	0		1.552244384765625	-0.930473388671875	0		3.478524658203125	-0.16462332153320314	0		4.58654052734375	-0.0228236083984375	0		5.5861982421875	0.07297439575195312	0		-0.08084255981445312	5.9378505859375	0		
-0.00499231481552124	4.1996601223945616E-4	0		0.43395770263671873	-2.36661279296875	0		-0.9371837768554687	0.12274761199951172	0		-0.73097216796875	-2.4997119140625	0		1.58071533203125	-0.9323603515625	0		3.451788330078125	-0.19103836059570312	0		4.57397900390625	-0.02128797912597656	0		5.58463232421875	0.07349658203125	0		-0.07980268096923829	5.92406396484375	0		
-0.006395546913146972	6.279370188713074E-4	0		0.45863253784179686	-2.370560302734375	0		-0.9445653686523438	0.12695433807373047	0		-0.802316162109375	-2.507064208984375	0		1.573394287109375	-0.9260413208007813	0		3.444447509765625	-0.18263589477539063	0		4.582515625	-0.02895183563232422	0		5.58917138671875	0.06591370391845704	0		-0.08246347045898438	5.925275390625	0		
-0.015692259788513182	-0.006138195991516113	0		0.4384342041015625	-2.37623486328125	0		-0.9458202514648437	0.12709825897216798	0		-0.7295113525390625	-2.51341064453125	0		1.5691533203125	-0.9297801513671875	0		3.44915087890625	-0.19036276245117187	0		4.57131494140625	-0.020535659790039063	0		5.57791943359375	0.0663765869140625	0		-0.0829486312866211	5.92444580078125	0		
-0.00874616813659668	9.619140028953552E-4	0		0.4394313659667969	-2.373079833984375	0		-0.9359252319335938	0.12714806365966796	0		-0.8004547119140625	-2.50181396484375	0		1.541037109375	-0.9363944091796875	0		3.4541630859375	-0.17413606262207032	0		4.5702099609375	-0.0202384033203125	0		5.58086962890625	0.07468650817871093	0		-0.1543217010498047	5.913064453125	0		
0.04831900787353516	0.003706355094909668	0		0.45959521484375	-2.365077392578125	0		-0.9368821411132813	0.12725254821777343	0		-0.7253749389648437	-2.50721044921875	0		1.573201416015625	-0.9224419555664063	0		3.4471083984375	-0.18987184143066407	0		4.5632001953125	-0.027949417114257812	0		5.57991455078125	0.07496842956542969	0		-0.08535798645019531	5.924724609375	0		
-0.010509057998657227	0.0011993119716644288	0		0.4377857055664062	-2.3728203125	0		-0.9427207641601563	0.12337285614013672	0		-0.8041072387695313	-2.503602294921875	0		1.5693927001953125	-0.925279296875	0		3.458355712890625	-0.18176719665527344	0		4.55139501953125	-0.026672073364257812	0		5.57910302734375	0.07519993591308594	0		-0.08629865264892578	5.92483056640625	0		
0.03979120635986328	-0.0030499529838562012	0		0.45417462158203126	-2.36983740234375	0		-0.8673967895507813	0.12294207763671874	0		-0.74073681640625	-2.503951416015625	0		1.5687366943359375	-0.9251641845703125	0		3.439687255859375	-0.18150006103515626	0		4.550720703125	-0.026508087158203124	0		5.5794365234375	0.0763788604736328	0		-0.08806830596923829	5.92592333984375	0		
